<svg width="350" height="154" viewBox="0 0 350 154" fill="none" xmlns="http://www.w3.org/2000/svg">
    <path fill="#FDF8E3" d="M0 0h350v154H0z"/>
    <path opacity=".6" d="M276.214 99.267c2.781-8.653 11.827-11.651 19.307-11.228 6.996.395 9.615 3.048 11.789 5.25 1.139 1.153 2.156 2.183 3.616 2.699 3.623 1.279 6.949 10.62 5.269 14.167-1.147 2.423-.758 3.486-.176 5.077.271.738.582 1.589.801 2.743.692 3.64-.69 7.135-2.864 8.472-1.452.893-1.89 1.533-2.522 2.456-.314.458-.675.987-1.233 1.651-1.679 2-4.939 3.509-9.188 2.427-2.875-.733-4.252-.791-6.151-.69l.324 11.709h-2.915l.32-11.566c-.32.019-.661.037-1.025.055-1.4.066-2.581.488-3.747.905-2.353.84-4.644 1.659-8.542-.512-5.829-3.247-7.113-9.248-7.311-11.905-.065-.868-.425-1.637-.841-2.526-.856-1.829-1.949-4.162-1.183-8.904.735-4.559 2.568-6.155 4.104-7.494.94-.819 1.769-1.541 2.168-2.786zM101.058 110.448c-.084 2.386-.17 4.835 1.388 6.996 3.788 5.256 4.201 8.94 2.963 11.751-1.269 2.879-8.818 4.964-15.69 5.344l.74 9.26h-5.885l.74-9.26c-6.871-.38-14.42-2.465-15.689-5.344-1.239-2.811-.825-6.495 2.964-11.751 1.558-2.161 1.471-4.61 1.387-6.995-.064-1.816-.127-3.594.537-5.182.851-2.037 1.62-3.002 2.376-3.948.656-.823 1.302-1.632 1.98-3.121.65-1.422.375-3.155.095-4.917-.287-1.815-.58-3.662.127-5.233.898-1.998 1.663-2.961 2.314-3.78.82-1.03 1.455-1.83 1.941-4.18.489-2.36 2.799-6.088 4.17-6.088 1.373 0 3.683 3.728 4.172 6.089.486 2.348 1.122 3.148 1.941 4.18.65.818 1.416 1.781 2.314 3.779.707 1.571.414 3.418.127 5.233-.28 1.762-.554 3.495.094 4.917.68 1.489 1.325 2.298 1.981 3.12.755.947 1.525 1.911 2.376 3.949.664 1.588.601 3.366.537 5.181z" fill="#F9E8A0"/>
    <path d="M295 139.5a4.5 4.5 0 1 1-9 0 4.5 4.5 0 0 1 9 0z" fill="#FCB529"/>
    <path d="M288 140.5a3.5 3.5 0 1 1-7 0 3.5 3.5 0 0 1 7 0zM299 141.5a2.5 2.5 0 1 1-5 0 2.5 2.5 0 0 1 5 0z" fill="#FCB529"/>
    <path d="M283 142a2 2 0 1 1-3.999.001A2 2 0 0 1 283 142z" fill="#FCB529"/>
    <path d="M246 144a2 2 0 0 1 2-2h61a2 2 0 0 1 2 2h-65z" fill="#FCB529"/>
    <path fill="#FFD88E" d="M232 99h48v45h-48zM149 99h21v45h-21z"/>
    <path d="m190 56 43 43h-86l43-43z" fill="#202E37"/>
    <path d="m257 74 25 25h-50l25-25z" fill="#202E37"/>
    <path d="m257 76 23 23h-46l23-23zM190 58l41 41h-82l41-41z" fill="#FFD88E"/>
    <path fill="#fff" d="M170 99h62v45h-62zM95 99h54v45H95z"/>
    <path fill="#FFE7BD" d="M95 99h54v1H95z"/>
    <path d="M134 56h56l-41 41H93l41-41z" fill="#157EB4"/>
    <path d="m132 58 1-1h56l-1 1h-56zM130 60l1-1h56l-1 1h-56zM128 62l1-1h56l-1 1h-56zM126 64l1-1h56l-1 1h-56zM124 66l1-1h56l-1 1h-56zM122 68l1-1h56l-1 1h-56zM120 70l1-1h56l-1 1h-56zM118 72l1-1h56l-1 1h-56zM116 74l1-1h56l-1 1h-56zM114 76l1-1h56l-1 1h-56zM112 78l1-1h56l-1 1h-56zM110 80l1-1h56l-1 1h-56zM108 82l1-1h56l-1 1h-56zM106 84l1-1h56l-1 1h-56zM104 86l1-1h56l-1 1h-56zM102 88l1-1h56l-1 1h-56zM100 90l1-1h56l-1 1h-56zM98 92l1-1h56l-1 1H98zM96 94l1-1h56l-1 1H96zM94 96l1-1h56l-1 1H94z" fill="#000" fill-opacity=".1"/>
    <path fill="#fff" d="M156 47h9v15h-9z"/>
    <path d="M165 47h6v9l-6 6V47z" fill="#FFD88E"/>
    <path fill="#157EB4" d="M155 49h10v3h-10z"/>
    <path fill="#0F587E" d="M165 49h7v3h-7z"/>
    <path fill="#fff" d="M133 125h11v2h-11z"/>
    <path fill="#FFD88E" d="M142 125h2v2h-2zM134 110h1v15h-1z"/>
    <path fill="#637482" d="M163 110h1v15h-1z"/>
    <path fill="#C8E6F9" d="M136 111h7v13h-7z"/>
    <path fill="#E4F2FA" d="M136 115h7v9h-7z"/>
    <path fill-rule="evenodd" clip-rule="evenodd" d="M135 110v15h9v-15h-9zm8 14v-13h-7v13h7z" fill="#637482"/>
    <path fill="#000" fill-opacity=".3" d="M135 110h9v2h-9z"/>
    <path fill="#fff" d="M99 125h11v2H99z"/>
    <path fill="#000" fill-opacity=".1" d="M99 127h11v1H99zM133 127h11v1h-11zM177 127h45v1h-45z"/>
    <path fill="#FFD88E" d="M108 125h2v2h-2zM100 110h1v15h-1z"/>
    <path fill="#C8E6F9" d="M102 111h7v13h-7z"/>
    <path fill="#E4F2FA" d="M102 115h7v9h-7z"/>
    <path fill-rule="evenodd" clip-rule="evenodd" d="M101 110v15h9v-15h-9zm8 14v-13h-7v13h7z" fill="#637482"/>
    <path fill="#000" fill-opacity=".3" d="M101 110h9v2h-9z"/>
    <path fill="#FFD88E" d="M164 110h1v15h-1z"/>
    <path fill="#A4D8F3" d="M156 111h7v13h-7z"/>
    <path fill="#C8E6F9" d="M156 115h7v9h-7z"/>
    <path fill-rule="evenodd" clip-rule="evenodd" d="M155 110v15h9v-15h-9zm8 14v-13h-7v13h7z" fill="#637482"/>
    <path fill="#000" fill-opacity=".3" d="M155 110h9v2h-9z"/>
    <path d="M93 97h58l-1.95 2H93v-2z" fill="#202E37"/>
    <path fill="#FFE7BD" d="M170 99h62v1h-62z"/>
    <path d="M257 74h-66l-23 23h66l23-23z" fill="#157EB4"/>
    <path fill="#202E37" d="M168 97h66v2h-66z"/>
    <path fill="#fff" d="M177 125h45v2h-45z"/>
    <path fill="#FFD88E" d="M178 110h1v15h-1zM220 125h2v2h-2z"/>
    <path fill="#637482" d="M221 110h1v15h-1zM179 110h1v15h-1zM221 110v1h-41v-1zM221 124v1h-41v-1z"/>
    <path fill="#E4F2FA" d="M180 111h20v13h-20z"/>
    <path opacity=".3" fill="#C8E6F9" d="M193 115h4v7h-4zM180 124h10v-11h-10z"/>
    <path opacity=".6" fill="#C8E6F9" d="M189 124h1v-11h-1z"/>
    <path fill="#E4F2FA" d="M200 111h21v13h-21z"/>
    <path fill="#637482" d="M199 111h1v13h-1z"/>
    <circle cx="257" cy="91" r="6" fill="#157EB4"/>
    <path fill-rule="evenodd" clip-rule="evenodd" d="M257 85a6 6 0 1 0 0 12v-1a5 5 0 0 1 0-10v-1z" fill="#FFF0A8"/>
    <path fill-rule="evenodd" clip-rule="evenodd" d="M257 85a6 6 0 1 1 0 12v-1a5 5 0 0 0 0-10v-1z" fill="#000" fill-opacity=".3"/>
    <path fill="#FCB529" d="M237 110h37v34h-37z"/>
    <path fill="#FFE7BD" d="M273 110h2v34h-2z"/>
    <path d="M273 114.827V110h-36v34h6.827L273 114.827z" fill="#EE9E00"/>
    <path fill="#BE7E00" d="M237 115h8v4h-8zM237 127h6v4h-6z"/>
    <path fill="#D38C00" d="M245 120h1v1h-1zM245 126h1v1h-1zM245 132h1v12h-1zM237 119h11v1h-11zM237 125h11v1h-11zM237 131h11v1h-11z"/>
    <path fill="#157EB4" d="M116 110h13v30h-13z"/>
    <path fill-rule="evenodd" clip-rule="evenodd" d="M118 112v12h9v-12h-9zm8 11v-10h-7v10h7zM118 126v12h9v-12h-9zm8 11v-10h-7v10h7z" fill="#000" fill-opacity=".3"/>
    <path fill="#FFD88E" d="M115 110h1v30h-1z"/>
    <path fill="#fff" d="M113 108h14v2h-14z"/>
    <path fill="#FFD88E" d="M127 108h2v2h-2z"/>
    <path opacity=".3" fill="#A4D8F3" d="M205 115h16v4h-16z"/>
    <path opacity=".6" fill="#A4D8F3" d="M203 120h18v-1h-18zM204 121h1v-1h-1z"/>
    <rect x="267" y="136" width="2" height="1" rx=".5" fill="#30414D"/>
    <path fill-rule="evenodd" clip-rule="evenodd" d="M268.293 136.266a.375.375 0 0 1-.059.527l-2.5 2a.375.375 0 0 1-.468-.586l2.5-2a.375.375 0 0 1 .527.059z" fill="#CFD8DE"/>
    <path fill-rule="evenodd" clip-rule="evenodd" d="M275 143a6 6 0 1 0 0-12 6 6 0 0 0 0 12zm0 1a7 7 0 1 0 0-14 7 7 0 0 0 0 14zM254 143a6 6 0 1 0 0-12 6 6 0 0 0 0 12zm0 1a7 7 0 1 0 0-14 7 7 0 0 0 0 14z" fill="#CFD8DE"/>
    <path fill-rule="evenodd" clip-rule="evenodd" d="M275 143.5a6.5 6.5 0 1 0 0-13 6.5 6.5 0 0 0 0 13zm0 .5a7 7 0 1 0 0-14 7 7 0 0 0 0 14zM254 143.5a6.5 6.5 0 1 0 0-13 6.5 6.5 0 0 0 0 13zm0 .5a7 7 0 1 0 0-14 7 7 0 0 0 0 14z" fill="#30414D"/>
    <path fill-rule="evenodd" clip-rule="evenodd" d="M254 137.5a.5.5 0 1 0 0-1 .5.5 0 0 0 0 1zm0 .5a1 1 0 1 0 0-2 1 1 0 0 0 0 2zM275 137.5a.5.5 0 1 0 0-1 .5.5 0 0 0 0 1zm0 .5a1 1 0 1 0 0-2 1 1 0 0 0 0 2zM257.875 124.5c0-.207.168-.375.375-.375h2.5c.124 0 .241.062.311.165a.377.377 0 0 1 .037.349l-1 2.5a.374.374 0 1 1-.696-.278l.794-1.986h-1.946a.375.375 0 0 1-.375-.375zM269.739 125.652a.374.374 0 0 1 .209.487l-.6 1.5a.374.374 0 1 1-.696-.278l.6-1.5a.375.375 0 0 1 .487-.209z" fill="#CFD8DE"/>
    <path fill-rule="evenodd" clip-rule="evenodd" d="m260.164 127.5.305-.827-.938-.346-1.289 3.498-.778 2.047a9.5 9.5 0 0 1-2.798 3.922l-.986.822a.5.5 0 1 0 .64.768l.986-.821a10.507 10.507 0 0 0 3.093-4.336l.468-1.23 6.789 8.499 3.949-10.366 4.968 8.131a.501.501 0 0 0 .854-.522l-5.647-9.239h-9.616zm8.61 1h-8.978l-.519 1.408 6.067 7.596 3.43-9.004z" fill="#971B36"/>
    <rect x="268.5" y="125" width="3" height="1" rx=".5" fill="#30414D"/>
    <path d="M267 138.5a1.5 1.5 0 1 1-3.001-.001 1.5 1.5 0 0 1 3.001.001z" fill="#CFD8DE"/>
    <path fill-rule="evenodd" clip-rule="evenodd" d="M265.5 139a.5.5 0 1 0 0-1 .5.5 0 0 0 0 1zm0 1a1.5 1.5 0 1 0-.001-3.001A1.5 1.5 0 0 0 265.5 140z" fill="#30414D"/>
    <path fill-rule="evenodd" clip-rule="evenodd" d="M265.793 138.266a.375.375 0 0 1-.059.527l-2.5 2a.375.375 0 0 1-.468-.586l2.5-2a.375.375 0 0 1 .527.059z" fill="#CFD8DE"/>
    <path d="M262 140.5a.5.5 0 0 1 .5-.5h1a.5.5 0 0 1 0 1h-1a.5.5 0 0 1-.5-.5z" fill="#30414D"/>
    <path d="M97 141a2 2 0 1 1-4 0 2 2 0 0 1 4 0z" fill="#FFD88E"/>
    <path d="M102 139.5a3.5 3.5 0 1 1-7 0 3.5 3.5 0 0 1 7 0z" fill="#FFD88E"/>
    <path d="M108 139.5a4.5 4.5 0 1 1-9 0 4.5 4.5 0 0 1 9 0z" fill="#FFD88E"/>
    <path d="M113 140.5a3.5 3.5 0 1 1-7 0 3.5 3.5 0 0 1 7 0z" fill="#FFD88E"/>
    <path d="M75 144a2 2 0 0 1 2-2h34a2 2 0 0 1 2 2H75zM137 139.5a2.5 2.5 0 1 1-5 0 2.5 2.5 0 0 1 5 0z" fill="#FFD88E"/>
    <path d="M145 138.5a4.5 4.5 0 1 1-9 0 4.5 4.5 0 0 1 9 0z" fill="#FFD88E"/>
    <path d="M149 139.5a3.5 3.5 0 1 1-7 0 3.5 3.5 0 0 1 7 0z" fill="#FFD88E"/>
    <path d="M129 144a4 4 0 0 1 4-4h16a4 4 0 0 1 4 4h-24z" fill="#FFD88E"/>
    <path d="M166 140.5a2.5 2.5 0 1 1-5 0 2.5 2.5 0 0 1 5 0z" fill="#FCB529"/>
    <path d="M164 139.5a3.5 3.5 0 1 1-7 0 3.5 3.5 0 0 1 7 0z" fill="#FCB529"/>
    <path d="M159 139.5a2.5 2.5 0 1 1-5 0 2.5 2.5 0 0 1 5 0z" fill="#FCB529"/>
    <path d="M149 144a4 4 0 0 1 4-4h13a4 4 0 0 1 4 4h-21z" fill="#FCB529"/>
    <circle cx="185" cy="137" r="7" fill="#FFD88E"/>
    <circle cx="222" cy="142" r="2" fill="#FFD88E"/>
    <circle cx="219.5" cy="141.5" r="1.5" fill="#FFD88E"/>
    <circle cx="178" cy="141" r="3" fill="#FFD88E"/>
    <circle cx="192" cy="138" r="5" fill="#FFD88E"/>
    <circle cx="197.5" cy="140.5" r="3.5" fill="#FFD88E"/>
    <circle cx="215.5" cy="140.5" r="3.5" fill="#FFD88E"/>
    <path d="M170 144a2 2 0 0 1 2-2h58a2 2 0 0 1 2 2h-62zM129 140h-4v2h-4v2h8v-4z" fill="#FFD88E"/>
    <path fill="#fff" d="M108 142h13v2h-13z"/>
    <path fill="#FAF0BE" d="M112 140h13v2h-13z"/>
    <path d="M256 75h-66l-1 1h66l1-1zM254 77h-66l-1 1h66l1-1zM252 79h-66l-1 1h66l1-1zM250 81h-66l-1 1h66l1-1zM248 83h-66l-1 1h66l1-1zM246 85h-66l-1 1h66l1-1zM244 87h-66l-1 1h66l1-1zM242 89h-66l-1 1h66l1-1zM240 91h-66l-1 1h66l1-1zM238 93h-66l-1 1h66l1-1zM236 95h-66l-1 1h66l1-1z" fill="#000" fill-opacity=".1"/>
    <path d="M212 77h-13l-15 15h13l15-15zM226 77h-13l-15 15h13l15-15zM240 77h-13l-15 15h13l15-15z" fill="#208AC0"/>
    <path fill="#971B36" d="M42 100h2v50h-2z"/>
    <path fill="#6A1326" d="M55 105h1v3h-1z"/>
    <path fill="#E71442" d="M47 108h35v25H47z"/>
    <path d="M55.347 119v-6.545h4.602v1.432h-2.825v1.125h2.544v1.431h-2.544V119h-1.777zM67.303 115.727c0 .729-.141 1.344-.425 1.845a2.856 2.856 0 0 1-1.147 1.134 3.377 3.377 0 0 1-1.61.384 3.37 3.37 0 0 1-1.618-.387c-.48-.26-.86-.639-1.144-1.138-.281-.501-.422-1.113-.422-1.838 0-.728.14-1.342.422-1.84a2.833 2.833 0 0 1 1.144-1.135 3.37 3.37 0 0 1 1.617-.387c.593 0 1.13.129 1.611.387.482.256.864.634 1.147 1.135.284.498.425 1.112.425 1.84zm-1.828 0c0-.392-.052-.722-.156-.99a1.255 1.255 0 0 0-.457-.614c-.2-.141-.448-.211-.742-.211s-.542.07-.745.211c-.2.139-.352.343-.456.614-.103.268-.154.598-.154.99s.051.724.154.994a1.3 1.3 0 0 0 .457.614c.202.139.45.208.744.208s.541-.069.742-.208c.202-.141.354-.345.457-.614.104-.27.156-.602.156-.994zM68.486 119v-6.545h2.825c.486 0 .91.088 1.275.265.365.177.648.431.85.764.203.332.304.731.304 1.195 0 .469-.105.864-.313 1.186a1.923 1.923 0 0 1-.873.729c-.373.164-.808.246-1.307.246h-1.688v-1.381h1.33c.209 0 .387-.026.534-.077a.673.673 0 0 0 .342-.252.766.766 0 0 0 .121-.451c0-.187-.04-.34-.121-.457a.678.678 0 0 0-.342-.262 1.479 1.479 0 0 0-.534-.086h-.626V119h-1.777zm3.835-3.004L73.957 119h-1.93l-1.598-3.004h1.892zM56.09 123.5a.689.689 0 0 0-.24-.498c-.141-.12-.355-.179-.643-.179-.183 0-.333.022-.45.067a.535.535 0 0 0-.256.176.43.43 0 0 0-.087.255.42.42 0 0 0 .042.214.516.516 0 0 0 .16.17c.072.049.165.093.278.134.113.04.247.077.403.109l.537.115c.362.076.672.178.93.303.257.126.468.274.632.445.164.168.285.358.361.568.08.211.12.441.122.691-.002.43-.11.795-.323 1.093-.213.298-.518.525-.914.681-.394.155-.868.233-1.422.233-.57 0-1.066-.084-1.49-.253a2.076 2.076 0 0 1-.984-.776c-.232-.352-.35-.801-.352-1.349h1.688c.01.2.06.369.15.505s.215.24.377.31c.164.07.36.105.585.105.19 0 .349-.023.476-.07a.645.645 0 0 0 .291-.195.46.46 0 0 0 .103-.284.403.403 0 0 0-.1-.262.769.769 0 0 0-.306-.205 3.231 3.231 0 0 0-.579-.172l-.652-.141c-.58-.126-1.036-.336-1.37-.63-.333-.296-.498-.7-.496-1.211a1.803 1.803 0 0 1 .332-1.09c.226-.313.538-.557.937-.732.4-.174.86-.262 1.377-.262.528 0 .986.089 1.371.266.386.176.683.426.892.747.21.32.317.694.32 1.122h-1.7zM60.36 128h-1.917l2.16-6.545h2.43l2.16 6.545h-1.918l-1.432-4.743h-.05L60.36 128zm-.358-2.582h3.605v1.329h-3.605v-1.329zM66.183 128v-6.545h1.777v5.113h2.646V128h-4.423zM71.685 128v-6.545h4.717v1.432h-2.94v1.125h2.697v1.431h-2.697v1.125h2.927V128h-4.704z" fill="#fff"/>
    <path fill="#000" fill-opacity=".1" d="M47 108h2v25h-2z"/>
    <path fill="#6A1326" d="M73 105h1v3h-1z"/>
    <rect x="39" y="103" width="45" height="2" rx="1" fill="#BA3552"/>
    <path d="M44 101.732a1.983 1.983 0 0 1-1 .268c-.364 0-.706-.097-1-.268V100h2v1.732zM42 105h2v2h-2z" fill="#000" fill-opacity=".3"/>
    <rect x="41" y="97" width="4" height="4" rx="2" fill="#BA3552"/>
    <path d="M276.54 56.26a4.687 4.687 0 0 0-.917-2.427 4.509 4.509 0 0 0-2.05-1.533 4.392 4.392 0 0 0-2.533-.15c-.841.2-1.608.643-2.21 1.278a13.383 13.383 0 0 0-3-7.697c-1.5-1.308-7.92-4.818-15 4.618-1.035-5.726-9.24-4.079-11.775 2.633-6-1.016-10.05 1.539-11.055 5.018h54c-.54-1.77-3.315-2.77-5.46-1.74z" fill="#fff"/>
    <path fill="#000" fill-opacity=".1" d="M113 110h16v1h-16z"/>
    <path fill="#157EB4" d="M184 92h13v1h-13zM198 92h13v1h-13z"/>
    <path fill="#000" fill-opacity=".3" d="M198 93h13v1h-13zM184 93h13v1h-13z"/>
    <path fill="#157EB4" d="M212 92h13v1h-13z"/>
    <path fill="#000" fill-opacity=".3" d="M212 93h13v1h-13z"/>
    <path d="m212 77-15 15v1l14.994-14.994L212 77zM226 77l-15 15v1l14.994-14.994L226 77zM240 77l-15 15v1l14.994-14.994L240 77z" fill="#202E37"/>
    <path d="M211 93v1l1-1v-1l-1 1zM240 78l-15 15v1l14.994-14.994L240 78zM197 93v1l1-1v-1l-1 1z" fill="#000" fill-opacity=".3"/>
</svg>
