<?xml version="1.0" encoding="UTF-8"?>
<svg id="Layer_1" xmlns="http://www.w3.org/2000/svg" version="1.1" viewBox="0 0 673.5 225.5">
  <!-- Generator: Adobe Illustrator 29.8.1, SVG Export Plug-In . SVG Version: 2.1.1 Build 2)  -->
  <defs>
    <style>
      .st0 {
        fill: #0d1d27;
      }

      .st1 {
        fill: #ea3934;
      }
    </style>
  </defs>
  <g>
    <polygon class="st1" points="144.8 44.4 144.8 127.9 76.7 127.9 76.7 83.3 0 127.9 0 43.4 72.4 0 144.8 44.4"/>
    <polygon class="st1" points="76.7 127.9 76.7 177.1 0 225.5 0 127.9 76.7 127.9"/>
  </g>
  <g>
    <path class="st0" d="M184.8,75h31.5v11.7h-31.5v26h-15.6V47.3h48.8v12.1h-33.2v15.6Z"/>
    <path class="st0" d="M240.3,46.4v11.4h-14.5v-11.4h14.5ZM240.3,64.2v48.6h-14.5v-48.6h14.5Z"/>
    <path class="st0" d="M264.8,70.7c3.1-4.3,8-7.7,15.5-7.7s17,5.5,17,17.8v31.9h-14.5v-28.3c0-7.2-3-9.8-8.3-9.8s-9.4,3.8-9.4,11.8v26.3h-14.5v-48.6h13.9v6.5h.4Z"/>
    <path class="st0" d="M324.7,63c6.9,0,11.8,2.6,14.6,6.9h.4v-23.5h14.5v66.3h-13.9v-6.4h-.4c-3.1,5.5-8.8,7.6-14.8,7.6-12.1,0-21-9.7-21-25.4s8.9-25.5,20.7-25.5h0ZM340.4,88.5c0-9.9-4.3-14.5-10.7-14.5s-10.8,4.7-10.8,14.5,4.2,14.5,10.8,14.5,10.7-4.7,10.7-14.5Z"/>
    <path class="st0" d="M200.5,118.7c15.3,0,24.1,8.1,24.1,21.6s-8.8,21.6-24.1,21.6h-15.7v22.3h-15.6v-65.4h31.3ZM197.8,149.8c7.2,0,11-3.6,11-9.5s-3.8-9.5-11-9.5h-13v18.9h13Z"/>
    <path class="st0" d="M246.6,143.1h.4c2.7-5.2,7.5-8.7,14.7-8.7s2.2.1,2.9.4v13.5c-1.1-.1-3.3-.4-5.2-.4-7,0-12.2,2.9-12.2,12.4v23.8h-14.5v-48.6h13.9v7.5Z"/>
    <path class="st0" d="M318.6,159.9c0,15.7-9.5,25.4-25.4,25.4s-25.5-9.7-25.5-25.4,9.5-25.5,25.5-25.5,25.4,9.7,25.4,25.5ZM303.7,159.9c0-10.2-4.1-14.8-10.6-14.8s-10.6,4.7-10.6,14.8,4.1,14.7,10.6,14.7,10.6-4.6,10.6-14.7Z"/>
    <path class="st0" d="M355.8,185.3c-6.9,0-11.7-2.4-14.6-6.9h-.4v22.6h-14.5v-65.4h13.9v6.4h.4c3.1-5.6,8.7-7.6,14.8-7.6,12.1,0,21,9.7,21,25.4s-8.9,25.5-20.7,25.5h0ZM340.1,159.9c0,9.9,4.3,14.5,10.7,14.5s10.8-4.7,10.8-14.5-4.2-14.5-10.8-14.5-10.7,4.7-10.7,14.5Z"/>
    <path class="st0" d="M430.9,169.6c-1.8,6.8-8.5,15.7-24.4,15.7s-25.1-9.7-25.1-25.3,9.3-25.5,25-25.5,26.1,9.8,24.9,28.4h-35.1c.1,7.7,4.1,12.6,10.2,12.6s8.7-3.8,9.5-6.9l14.9,1ZM396.4,154h20.1c-.3-5.7-3.9-10-10-10s-9.7,4.4-10,10Z"/>
    <path class="st0" d="M453.1,143.1h.4c2.7-5.2,7.5-8.7,14.7-8.7s2.2.1,2.9.4v13.5c-1.1-.1-3.3-.4-5.2-.4-7,0-12.2,2.9-12.2,12.4v23.8h-14.5v-48.6h13.9v7.5Z"/>
    <path class="st0" d="M500.8,173.8c2.1,0,3.7-.3,4.7-.5v10.8c-1.8.6-5.6,1.1-9.3,1.1-10.4,0-14.9-2.7-14.9-12.9v-27.4h-7.6v-9.4h7.6v-13.5h14.5v13.5h9.9v9.4h-9.9v24.3c0,3.8,1.5,4.6,5,4.6h0Z"/>
    <path class="st0" d="M544,184.1c-5.7,16-12.1,18-21,18s-6.7-.2-8.7-.6v-11.7c1.5.3,3.5.5,6.2.5,4.3,0,6-1.2,7.5-5.2l.5-1.4-19.4-48.3h15.8l10.9,31.4h.4l9.6-31.4h15.6l-17.4,48.6Z"/>
    <path class="st1" d="M613.3,184.1h-48v-2.2c0-16,8.8-22.5,18.3-28.1l6.5-4c4.6-2.8,8.4-6.1,8.4-11s-2.8-8.4-8.4-8.4-9.2,3.7-9.8,11.5l-14.7-.5c.9-15,11.5-22.5,24.5-22.5s23.3,6.2,23.3,19-8.1,17.5-16.4,22.4l-5.4,3.4c-5.2,3.2-8.5,6.5-8.7,8.3h30.4v12.2Z"/>
    <path class="st1" d="M669.4,158.7v10.9h-7.6v14.5h-14.8v-14.5h-28.9v-12.2l22.7-37.4h21v38.7h7.6ZM629.8,158.7h17.2v-28h-.4l-16.8,27.6v.4Z"/>
  </g>
</svg>